<?xml version="1.0" encoding="UTF-8" standalone="no"?>
<!DOCTYPE svg PUBLIC "-//W3C//DTD SVG 1.1//EN"
 "http://www.w3.org/Graphics/SVG/1.1/DTD/svg11.dtd">
<!-- Generated by graphviz version 2.44.0 ()
 -->
<!-- Title: D Pages: 1 -->
<svg width="1245pt" height="642pt"
 viewBox="0.00 0.00 1245.00 642.00" xmlns="http://www.w3.org/2000/svg" xmlns:xlink="http://www.w3.org/1999/xlink">
<g id="graph0" class="graph" transform="scale(1 1) rotate(0) translate(4 638)">
<title>D</title>
<polygon fill="white" stroke="transparent" points="-4,4 -4,-638 1241,-638 1241,4 -4,4"/>
<g id="clust1" class="cluster">
<title>cluster_realearn</title>
<polygon fill="none" stroke="black" points="158,-79 158,-626 1053,-626 1053,-79 158,-79"/>
<text text-anchor="middle" x="605.5" y="-610.8" font-family="Times,serif" font-size="14.00">ReaLearn</text>
</g>
<g id="clust2" class="cluster">
<title>cluster_instance</title>
<polygon fill="none" stroke="black" points="166,-166 166,-595 808,-595 808,-166 166,-166"/>
<text text-anchor="middle" x="487" y="-579.8" font-family="Times,serif" font-size="14.00">Instance</text>
</g>
<!-- MidiInputDevice -->
<g id="node1" class="node">
<title>MidiInputDevice</title>
<polygon fill="none" stroke="black" points="110,-300 0,-300 0,-264 110,-264 110,-300"/>
<text text-anchor="middle" x="55" y="-278.3" font-family="Times,serif" font-size="14.00">MidiInputDevice</text>
</g>
<!-- RealearnAudioHook -->
<g id="node9" class="node">
<title>RealearnAudioHook</title>
<polygon fill="none" stroke="black" points="332.5,-123 203.5,-123 203.5,-87 332.5,-87 332.5,-123"/>
<text text-anchor="middle" x="268" y="-101.3" font-family="Times,serif" font-size="14.00">RealearnAudioHook</text>
</g>
<!-- MidiInputDevice&#45;&gt;RealearnAudioHook -->
<g id="edge17" class="edge">
<title>MidiInputDevice&#45;&gt;RealearnAudioHook</title>
<path fill="none" stroke="black" d="M51.56,-263.66C46.81,-234.2 42.11,-174.31 74,-141 90.41,-123.86 145.94,-115.02 193.41,-110.52"/>
<polygon fill="black" stroke="black" points="193.75,-114 203.4,-109.62 193.13,-107.03 193.75,-114"/>
<text text-anchor="middle" x="169" y="-144.8" font-family="Times,serif" font-size="14.00">MIDI control events (device input)</text>
</g>
<!-- MidiOutputDevice -->
<g id="node2" class="node">
<title>MidiOutputDevice</title>
<polygon fill="none" stroke="black" points="327.5,-36 208.5,-36 208.5,0 327.5,0 327.5,-36"/>
<text text-anchor="middle" x="268" y="-14.3" font-family="Times,serif" font-size="14.00">MidiOutputDevice</text>
</g>
<!-- FxChain -->
<g id="node3" class="node">
<title>FxChain</title>
<polygon fill="none" stroke="black" points="1126.5,-564 1061.5,-564 1061.5,-528 1126.5,-528 1126.5,-564"/>
<text text-anchor="middle" x="1094" y="-542.3" font-family="Times,serif" font-size="14.00">FxChain</text>
</g>
<!-- RealearnPlugin -->
<g id="node14" class="node">
<title>RealearnPlugin</title>
<polygon fill="none" stroke="black" points="375.5,-477 274.5,-477 274.5,-441 375.5,-441 375.5,-477"/>
<text text-anchor="middle" x="325" y="-455.3" font-family="Times,serif" font-size="14.00">RealearnPlugin</text>
</g>
<!-- FxChain&#45;&gt;RealearnPlugin -->
<g id="edge13" class="edge">
<title>FxChain&#45;&gt;RealearnPlugin</title>
<path fill="none" stroke="black" d="M1061.13,-529.2C1059.75,-528.76 1058.37,-528.36 1057,-528 956.47,-501.91 927.55,-518.13 824,-510 639.98,-495.56 592.82,-502.48 410,-477 402.05,-475.89 393.73,-474.51 385.53,-473.01"/>
<polygon fill="black" stroke="black" points="386.1,-469.56 375.62,-471.14 384.8,-476.44 386.1,-469.56"/>
<text text-anchor="middle" x="910.5" y="-498.8" font-family="Times,serif" font-size="14.00">MIDI control events (FX input)</text>
</g>
<!-- Reaper -->
<g id="node4" class="node">
<title>Reaper</title>
<polygon fill="none" stroke="black" points="1199.5,-564 1144.5,-564 1144.5,-528 1199.5,-528 1199.5,-564"/>
<text text-anchor="middle" x="1172" y="-542.3" font-family="Times,serif" font-size="14.00">Reaper</text>
</g>
<!-- RealearnControlSurfaceMiddleware -->
<g id="node8" class="node">
<title>RealearnControlSurfaceMiddleware</title>
<polygon fill="none" stroke="black" points="1028,-477 816,-477 816,-441 1028,-441 1028,-477"/>
<text text-anchor="middle" x="922" y="-455.3" font-family="Times,serif" font-size="14.00">RealearnControlSurfaceMiddleware</text>
</g>
<!-- Reaper&#45;&gt;RealearnControlSurfaceMiddleware -->
<g id="edge7" class="edge">
<title>Reaper&#45;&gt;RealearnControlSurfaceMiddleware</title>
<path fill="none" stroke="black" d="M1144.25,-531.45C1141.49,-530.23 1138.7,-529.06 1136,-528 1089.04,-509.55 1034.87,-492.37 992.78,-479.9"/>
<polygon fill="black" stroke="black" points="993.75,-476.54 983.17,-477.07 991.78,-483.25 993.75,-476.54"/>
<text text-anchor="middle" x="1149.5" y="-498.8" font-family="Times,serif" font-size="14.00">REAPER change events</text>
</g>
<!-- App -->
<g id="node5" class="node">
<title>App</title>
<polygon fill="none" stroke="black" points="1041,-564 987,-564 987,-528 1041,-528 1041,-564"/>
<text text-anchor="middle" x="1014" y="-542.3" font-family="Times,serif" font-size="14.00">App</text>
</g>
<!-- Server -->
<g id="node6" class="node">
<title>Server</title>
<polygon fill="none" stroke="black" points="968,-564 914,-564 914,-528 968,-528 968,-564"/>
<text text-anchor="middle" x="941" y="-542.3" font-family="Times,serif" font-size="14.00">Server</text>
</g>
<!-- Backbone -->
<g id="node7" class="node">
<title>Backbone</title>
<polygon fill="none" stroke="black" points="892.5,-564 821.5,-564 821.5,-528 892.5,-528 892.5,-564"/>
<text text-anchor="middle" x="857" y="-542.3" font-family="Times,serif" font-size="14.00">Backbone</text>
</g>
<!-- MainProcessor -->
<g id="node19" class="node">
<title>MainProcessor</title>
<polygon fill="none" stroke="black" points="693,-390 549,-390 549,-174 693,-174 693,-390"/>
<text text-anchor="middle" x="621" y="-278.3" font-family="Times,serif" font-size="14.00">MainProcessor</text>
</g>
<!-- RealearnControlSurfaceMiddleware&#45;&gt;MainProcessor -->
<g id="edge9" class="edge">
<title>RealearnControlSurfaceMiddleware&#45;&gt;MainProcessor</title>
<path fill="none" stroke="black" d="M815.77,-441.44C814.5,-441.29 813.25,-441.14 812,-441 784.44,-437.88 581.89,-443.31 563,-423 556.57,-416.08 553.08,-408.36 551.84,-400.18"/>
<polygon fill="black" stroke="black" points="555.32,-399.84 551.39,-390 548.33,-400.15 555.32,-399.84"/>
<text text-anchor="middle" x="665" y="-411.8" font-family="Times,serif" font-size="14.00">REAPER and instance change events</text>
</g>
<!-- RealearnControlSurfaceMiddleware&#45;&gt;MainProcessor -->
<g id="edge10" class="edge">
<title>RealearnControlSurfaceMiddleware&#45;&gt;MainProcessor</title>
<path fill="none" stroke="black" d="M833.36,-440.9C817.17,-436.19 800.75,-430.31 786,-423 776.36,-418.22 776.59,-412.88 767,-408 740.67,-394.59 727.46,-406.58 703,-390 702.36,-389.57 701.73,-389.13 701.1,-388.69"/>
<polygon fill="black" stroke="black" points="703.15,-385.85 693.07,-382.59 698.92,-391.42 703.15,-385.85"/>
<text text-anchor="middle" x="840" y="-411.8" font-family="Times,serif" font-size="14.00">OSC control events</text>
</g>
<!-- RealearnAudioHook&#45;&gt;MidiOutputDevice -->
<g id="edge20" class="edge">
<title>RealearnAudioHook&#45;&gt;MidiOutputDevice</title>
<path fill="none" stroke="black" d="M268,-86.8C268,-75.16 268,-59.55 268,-46.24"/>
<polygon fill="black" stroke="black" points="271.5,-46.18 268,-36.18 264.5,-46.18 271.5,-46.18"/>
<text text-anchor="middle" x="372" y="-57.8" font-family="Times,serif" font-size="14.00">MIDI feedback events (device output)</text>
</g>
<!-- RealTimeProcessor -->
<g id="node18" class="node">
<title>RealTimeProcessor</title>
<polygon fill="none" stroke="black" points="340,-390 196,-390 196,-174 340,-174 340,-390"/>
<text text-anchor="middle" x="268" y="-278.3" font-family="Times,serif" font-size="14.00">RealTimeProcessor</text>
</g>
<!-- RealearnAudioHook&#45;&gt;RealTimeProcessor -->
<g id="edge18" class="edge">
<title>RealearnAudioHook&#45;&gt;RealTimeProcessor</title>
<path fill="none" stroke="black" d="M268,-123.23C268,-133.69 268,-148.05 268,-163.88"/>
<polygon fill="black" stroke="black" points="264.5,-163.91 268,-173.91 271.5,-163.91 264.5,-163.91"/>
<text text-anchor="middle" x="363" y="-144.8" font-family="Times,serif" font-size="14.00">MIDI control events (device input)</text>
</g>
<!-- OscOutputDevice -->
<g id="node10" class="node">
<title>OscOutputDevice</title>
<polygon fill="none" stroke="black" points="769.5,-123 654.5,-123 654.5,-87 769.5,-87 769.5,-123"/>
<text text-anchor="middle" x="712" y="-101.3" font-family="Times,serif" font-size="14.00">OscOutputDevice</text>
</g>
<!-- infrastructure_layer -->
<!-- application_layer -->
<!-- infrastructure_layer&#45;&gt;application_layer -->
<!-- processing_layer -->
<!-- application_layer&#45;&gt;processing_layer -->
<!-- RealearnPlugin&#45;&gt;RealTimeProcessor -->
<g id="edge14" class="edge">
<title>RealearnPlugin&#45;&gt;RealTimeProcessor</title>
<path fill="none" stroke="black" d="M274.46,-450.19C243.96,-444.32 209.26,-435.21 200,-423 189.79,-409.54 188.62,-394.3 192.69,-378.96"/>
<polygon fill="black" stroke="black" points="196.03,-380 195.87,-369.41 189.39,-377.79 196.03,-380"/>
<text text-anchor="middle" x="286.5" y="-411.8" font-family="Times,serif" font-size="14.00">MIDI control events (FX input)</text>
</g>
<!-- RealearnUi -->
<g id="node15" class="node">
<title>RealearnUi</title>
<polygon fill="none" stroke="black" points="487,-564 409,-564 409,-528 487,-528 487,-564"/>
<text text-anchor="middle" x="448" y="-542.3" font-family="Times,serif" font-size="14.00">RealearnUi</text>
</g>
<!-- Session -->
<g id="node16" class="node">
<title>Session</title>
<polygon fill="none" stroke="black" points="477,-477 419,-477 419,-441 477,-441 477,-477"/>
<text text-anchor="middle" x="448" y="-455.3" font-family="Times,serif" font-size="14.00">Session</text>
</g>
<!-- Session&#45;&gt;RealearnUi -->
<g id="edge6" class="edge">
<title>Session&#45;&gt;RealearnUi</title>
<path fill="none" stroke="black" d="M448,-477.18C448,-488.81 448,-504.42 448,-517.73"/>
<polygon fill="black" stroke="black" points="444.5,-517.8 448,-527.8 451.5,-517.8 444.5,-517.8"/>
<text text-anchor="middle" x="466.5" y="-498.8" font-family="Times,serif" font-size="14.00">Events</text>
</g>
<!-- Session&#45;&gt;MainProcessor -->
<g id="edge3" class="edge">
<title>Session&#45;&gt;MainProcessor</title>
<path fill="none" stroke="black" stroke-dasharray="5,2" d="M418.74,-445.02C402.58,-435.87 387.36,-422.68 396,-408 426.76,-355.72 488.17,-323.73 539.07,-305.22"/>
<polygon fill="black" stroke="black" points="540.5,-308.43 548.77,-301.81 538.17,-301.83 540.5,-308.43"/>
<text text-anchor="middle" x="438" y="-411.8" font-family="Times,serif" font-size="14.00">Sync mappings</text>
</g>
<!-- InstanceState -->
<g id="node17" class="node">
<title>InstanceState</title>
<polygon fill="none" stroke="black" points="800.5,-300 711.5,-300 711.5,-264 800.5,-264 800.5,-300"/>
<text text-anchor="middle" x="756" y="-278.3" font-family="Times,serif" font-size="14.00">InstanceState</text>
</g>
<!-- InstanceState&#45;&gt;RealearnControlSurfaceMiddleware -->
<g id="edge8" class="edge">
<title>InstanceState&#45;&gt;RealearnControlSurfaceMiddleware</title>
<path fill="none" stroke="black" stroke-dasharray="5,2" d="M781.08,-300.19C811.82,-322.26 863.99,-363.1 898,-408 903.37,-415.09 907.99,-423.58 911.71,-431.53"/>
<polygon fill="black" stroke="black" points="908.56,-433.08 915.77,-440.84 914.98,-430.27 908.56,-433.08"/>
<text text-anchor="middle" x="968.5" y="-411.8" font-family="Times,serif" font-size="14.00">Instance change events</text>
</g>
<!-- RealTimeProcessor&#45;&gt;FxChain -->
<g id="edge16" class="edge">
<title>RealTimeProcessor&#45;&gt;FxChain</title>
<path fill="none" stroke="black" d="M340.09,-319.16C393.75,-344.12 469.58,-375.35 540,-390 567.65,-395.75 1028.39,-387.68 1048,-408 1052.63,-412.8 1048.37,-416.34 1048,-423 1046.66,-447.11 1045.32,-453.08 1042,-477 1040.89,-485.03 1039.67,-486.92 1039,-495 1038.45,-501.64 1035.79,-504.16 1039,-510 1040.97,-513.59 1046.23,-517.95 1052.76,-522.36"/>
<polygon fill="black" stroke="black" points="1051.23,-525.53 1061.55,-527.91 1054.96,-519.62 1051.23,-525.53"/>
<text text-anchor="middle" x="1141.5" y="-455.3" font-family="Times,serif" font-size="14.00">MIDI feedback events (FX output)</text>
</g>
<!-- RealTimeProcessor&#45;&gt;MainProcessor -->
<g id="edge12" class="edge">
<title>RealTimeProcessor&#45;&gt;MainProcessor</title>
<path fill="none" stroke="black" stroke-dasharray="5,2" d="M340.29,-282C397.87,-282 478.51,-282 538.6,-282"/>
<polygon fill="black" stroke="black" points="538.81,-285.5 548.81,-282 538.81,-278.5 538.81,-285.5"/>
<text text-anchor="middle" x="444.5" y="-288.8" font-family="Times,serif" font-size="14.00">Control values (from MIDI events)</text>
</g>
<!-- MainProcessor&#45;&gt;RealearnAudioHook -->
<g id="edge19" class="edge">
<title>MainProcessor&#45;&gt;RealearnAudioHook</title>
<path fill="none" stroke="black" stroke-dasharray="5,2" d="M549,-218.05C507.06,-181.5 461.84,-142.36 459,-141 422.88,-123.69 379.14,-114.9 342.63,-110.46"/>
<polygon fill="black" stroke="black" points="342.87,-106.97 332.54,-109.32 342.08,-113.92 342.87,-106.97"/>
<text text-anchor="middle" x="578" y="-144.8" font-family="Times,serif" font-size="14.00">MIDI feedback events (device output)</text>
</g>
<!-- MainProcessor&#45;&gt;OscOutputDevice -->
<g id="edge11" class="edge">
<title>MainProcessor&#45;&gt;OscOutputDevice</title>
<path fill="none" stroke="black" stroke-dasharray="5,2" d="M680.91,-173.94C684.04,-167.9 687.09,-161.89 690,-156 693.73,-148.47 697.51,-140.16 700.86,-132.52"/>
<polygon fill="black" stroke="black" points="704.09,-133.87 704.84,-123.3 697.66,-131.09 704.09,-133.87"/>
<text text-anchor="middle" x="756.5" y="-144.8" font-family="Times,serif" font-size="14.00">OSC feedback events</text>
</g>
<!-- MainProcessor&#45;&gt;Session -->
<g id="edge5" class="edge">
<title>MainProcessor&#45;&gt;Session</title>
<path fill="none" stroke="black" d="M548.9,-355.93C521.45,-383.7 492.01,-413.48 472.06,-433.66"/>
<polygon fill="black" stroke="black" points="469.44,-431.33 464.9,-440.9 474.42,-436.25 469.44,-431.33"/>
<text text-anchor="middle" x="512.5" y="-411.8" font-family="Times,serif" font-size="14.00">Events</text>
</g>
<!-- MainProcessor&#45;&gt;RealTimeProcessor -->
<g id="edge4" class="edge">
<title>MainProcessor&#45;&gt;RealTimeProcessor</title>
<path fill="none" stroke="black" stroke-dasharray="5,2" d="M548.72,-298.95C545.95,-299.35 543.2,-299.7 540.5,-300 500.74,-304.39 404.05,-304.67 350.41,-299.96"/>
<polygon fill="black" stroke="black" points="350.58,-296.46 340.28,-298.95 349.89,-303.42 350.58,-296.46"/>
<text text-anchor="middle" x="444.5" y="-309.8" font-family="Times,serif" font-size="14.00">Sync mappings</text>
</g>
<!-- MainProcessor&#45;&gt;RealTimeProcessor -->
<g id="edge15" class="edge">
<title>MainProcessor&#45;&gt;RealTimeProcessor</title>
<path fill="none" stroke="black" stroke-dasharray="5,2" d="M548.71,-265.11C545.77,-264.69 542.86,-264.31 540,-264 500.45,-259.66 404.27,-259.39 350.46,-264.1"/>
<polygon fill="black" stroke="black" points="349.9,-260.64 340.29,-265.11 350.59,-267.61 349.9,-260.64"/>
<text text-anchor="middle" x="444.5" y="-267.8" font-family="Times,serif" font-size="14.00">MIDI feedback events (FX output)</text>
</g>
</g>
</svg>
