<?xml version="1.0" encoding="UTF-8" standalone="no"?>
<!DOCTYPE svg PUBLIC "-//W3C//DTD SVG 1.1//EN"
 "http://www.w3.org/Graphics/SVG/1.1/DTD/svg11.dtd">
<!-- Generated by graphviz version 2.44.0 ()
 -->
<!-- Title: D Pages: 1 -->
<svg width="383pt" height="227pt"
 viewBox="0.00 0.00 383.12 227.00" xmlns="http://www.w3.org/2000/svg" xmlns:xlink="http://www.w3.org/1999/xlink">
<g id="graph0" class="graph" transform="scale(1 1) rotate(0) translate(4 223)">
<title>D</title>
<polygon fill="white" stroke="transparent" points="-4,4 -4,-223 379.12,-223 379.12,4 -4,4"/>
<g id="clust1" class="cluster">
<title>cluster_realearn</title>
<polygon fill="none" stroke="black" points="8,-64 8,-211 158,-211 158,-64 8,-64"/>
<text text-anchor="middle" x="83" y="-195.8" font-family="Times,serif" font-size="14.00">ReaLearn</text>
</g>
<!-- main -->
<g id="node1" class="node">
<title>main</title>
<polygon fill="none" stroke="black" points="150,-180 96,-180 96,-144 150,-144 150,-180"/>
<text text-anchor="middle" x="123" y="-158.3" font-family="Times,serif" font-size="14.00">main</text>
</g>
<!-- swell_ui -->
<g id="node2" class="node">
<title>swell_ui</title>
<polygon fill="none" stroke="black" points="77.5,-108 16.5,-108 16.5,-72 77.5,-72 77.5,-108"/>
<text text-anchor="middle" x="47" y="-86.3" font-family="Times,serif" font-size="14.00">swell_ui</text>
</g>
<!-- main&#45;&gt;swell_ui -->
<g id="edge2" class="edge">
<title>main&#45;&gt;swell_ui</title>
<path fill="none" stroke="black" d="M104.21,-143.7C94.83,-135.05 83.32,-124.45 73.09,-115.03"/>
<polygon fill="black" stroke="black" points="75.3,-112.3 65.57,-108.1 70.55,-117.45 75.3,-112.3"/>
</g>
<!-- api -->
<g id="node3" class="node">
<title>api</title>
<polygon fill="none" stroke="black" points="150,-108 96,-108 96,-72 150,-72 150,-108"/>
<text text-anchor="middle" x="123" y="-86.3" font-family="Times,serif" font-size="14.00">api</text>
</g>
<!-- main&#45;&gt;api -->
<g id="edge1" class="edge">
<title>main&#45;&gt;api</title>
<path fill="none" stroke="black" d="M123,-143.7C123,-135.98 123,-126.71 123,-118.11"/>
<polygon fill="black" stroke="black" points="126.5,-118.1 123,-108.1 119.5,-118.1 126.5,-118.1"/>
</g>
<!-- reaper_rs -->
<g id="node4" class="node">
<title>reaper_rs</title>
<polygon fill="none" stroke="black" points="235.5,-108 168.5,-108 168.5,-72 235.5,-72 235.5,-108"/>
<text text-anchor="middle" x="202" y="-86.3" font-family="Times,serif" font-size="14.00">reaper_rs</text>
</g>
<!-- main&#45;&gt;reaper_rs -->
<g id="edge3" class="edge">
<title>main&#45;&gt;reaper_rs</title>
<path fill="none" stroke="black" d="M142.53,-143.7C152.38,-134.97 164.49,-124.24 175.2,-114.75"/>
<polygon fill="black" stroke="black" points="177.53,-117.36 182.7,-108.1 172.89,-112.12 177.53,-117.36"/>
</g>
<!-- helgoboss_learn -->
<g id="node5" class="node">
<title>helgoboss_learn</title>
<polygon fill="none" stroke="black" points="358,-108 254,-108 254,-72 358,-72 358,-108"/>
<text text-anchor="middle" x="306" y="-86.3" font-family="Times,serif" font-size="14.00">helgoboss_learn</text>
</g>
<!-- main&#45;&gt;helgoboss_learn -->
<g id="edge4" class="edge">
<title>main&#45;&gt;helgoboss_learn</title>
<path fill="none" stroke="black" d="M150,-150.67C176.7,-140.46 218.29,-124.55 251.82,-111.72"/>
<polygon fill="black" stroke="black" points="253.4,-114.87 261.49,-108.02 250.9,-108.33 253.4,-114.87"/>
</g>
<!-- helgoboss_midi -->
<g id="node6" class="node">
<title>helgoboss_midi</title>
<polygon fill="none" stroke="black" points="357.5,-36 254.5,-36 254.5,0 357.5,0 357.5,-36"/>
<text text-anchor="middle" x="306" y="-14.3" font-family="Times,serif" font-size="14.00">helgoboss_midi</text>
</g>
<!-- main&#45;&gt;helgoboss_midi -->
<g id="edge5" class="edge">
<title>main&#45;&gt;helgoboss_midi</title>
<path fill="none" stroke="black" d="M150.31,-159.25C208.17,-154.91 340,-141.5 367,-108 379.27,-92.78 375.81,-81.46 367,-64 362.73,-55.55 356.04,-48.29 348.63,-42.22"/>
<polygon fill="black" stroke="black" points="350.5,-39.25 340.38,-36.11 346.33,-44.88 350.5,-39.25"/>
</g>
<!-- reaper_rs&#45;&gt;helgoboss_midi -->
<g id="edge6" class="edge">
<title>reaper_rs&#45;&gt;helgoboss_midi</title>
<path fill="none" stroke="black" d="M227.44,-71.88C240.79,-62.89 257.32,-51.76 271.78,-42.03"/>
<polygon fill="black" stroke="black" points="274.12,-44.68 280.46,-36.19 270.21,-38.87 274.12,-44.68"/>
</g>
<!-- helgoboss_learn&#45;&gt;helgoboss_midi -->
<g id="edge7" class="edge">
<title>helgoboss_learn&#45;&gt;helgoboss_midi</title>
<path fill="none" stroke="black" d="M306,-71.7C306,-63.98 306,-54.71 306,-46.11"/>
<polygon fill="black" stroke="black" points="309.5,-46.1 306,-36.1 302.5,-46.1 309.5,-46.1"/>
</g>
</g>
</svg>
