<svg
        viewBox="0 0 100 100"
        xmlns="http://www.w3.org/2000/svg"
        class="ROOT_CLASSES_PLACEHOLDER"
>
    <style>
        <![CDATA[
        :root {
            /*
                The following CSS variables are just for preview purposes. They are currently
                not supported when generating the toolbar icons via `artwork-processor`.
                When generating icons, we replace the --var references directly.
            */
            --toolbar-icon-color: #686f6f;
            --toolbar-icon-hovered-color: #7c8383;
            --toolbar-icon-selected-color: #4da884;
            --toolbar-icon-background-color: #616161;

            --dark-color: #616161;
            --light-color: #f5f5f5;
        }

        /* Background */

        #icon-background {
            fill: var(--dark-color);
        }

        .inverted #icon-background {
            fill: var(--light-color);
        }

        .toolbar-icon #icon-background {
            fill-opacity: 0.0;
        }

        /* Watch frame */

        #watch-frame, #watch-straps {
            fill: var(--light-color);
        }

        .inverted #watch-frame, .inverted #watch-straps {
            fill: var(--dark-color);
        }

        .toolbar-icon #watch-frame, .toolbar-icon #watch-straps {
            fill: var(--toolbar-icon-color);
        }

        .toolbar-icon.hovered #watch-frame, .toolbar-icon.hovered #watch-straps {
            fill: var(--toolbar-icon-hovered-color);
        }

        .toolbar-icon.selected #watch-frame, .toolbar-icon.selected #watch-straps {
            fill: var(--toolbar-icon-selected-color);
        }

        /* Button */

        #button {
            fill: var(--light-color);
            stroke: var(--light-color);
        }

        .inverted #button {
            fill: var(--dark-color);
            stroke: var(--dark-color);
        }

        .toolbar-icon #button {
            fill: var(--toolbar-icon-color);
            stroke: var(--toolbar-icon-color);
        }

        .toolbar-icon.hovered #button {
            fill: var(--toolbar-icon-hovered-color);
            stroke: var(--toolbar-icon-hovered-color);
        }

        .toolbar-icon.selected #button {
            fill: var(--toolbar-icon-selected-color);
            stroke: var(--toolbar-icon-selected-color);
        }

        /* Settings icon */
        #settings-icon {
            display: none;
        }

        .with-custom-icon #settings-icon {
            display: inline;
        }

        #settings-icon-circle {
            fill: var(--dark-color);
        }

        .toolbar-icon #settings-icon-circle {
            fill: var(--toolbar-icon-background-color);
        }


        /* Text badge */

        #text-badge {
            display: none;
        }

        .with-text-badge #text-badge {
            display: inline;
        }

        #text-badge-circle {
            fill: var(--light-color);
            stroke: var(--dark-color);
        }

        #text-badge-text {
            fill: var(--dark-color);
        }

        .toolbar-icon #text-badge-circle {
            fill: var(--toolbar-icon-color);
            stroke: var(--toolbar-icon-background-color);
        }

        .toolbar-icon #text-badge-text {
            fill: var(--toolbar-icon-background-color);
        }
        ]]>
    </style>
    <defs>
        <mask id="cut-off-display">
            <rect x="0" y="0" width="100" height="100" fill="white"/>
            <circle cx="50" cy="50" r="30" fill="black"/>
        </mask>
    </defs>
    <g id="icon-background">
        <rect rx="15" width="100" height="100"/>
    </g>
    <g id="watch" mask="url(#cut-off-display)" transform="rotate(0, 50, 50)">
        <g id="watch-frame" stroke-width="012">
            <circle cx="50" cy="50" r="35"/>
        </g>
        <g id="watch-straps">
            <polygon id="watch-strap" points="50,20, 100,30, 100,70, 50,80"/>
            <use href="#watch-strap" x="0" y="0" transform="translate(100, 0) scale(-1, 1)"/>
        </g>
    </g>
    <g id="button" stroke-width="15" stroke-linecap="round" stroke-linejoin="round"
       transform="translate(50, 50) scale(0.6, 0.6) translate(-50, -50)">
        <path id="button-path"
              d="
                    M 50,50
                    m -10,-20
                    q -10,20 0,40
                    q 15,-5 30,-20
                    q -15,-15 -30,-20
                    "
        />
    </g>
    <g id="settings-icon" transform="translate(37, 38)">
        <path id="settings-icon-circle"
              d="m9.25 22l-.4-3.2q-.325-.125-.612-.3t-.563-.375L4.7 19.375l-2.75-4.75l2.575-1.95Q4.5 12.5 4.5 12.338v-.675q0-.163.025-.338L1.95 9.375l2.75-4.75l2.975 1.25q.275-.2.575-.375t.6-.3l.4-3.2h5.5l.4 3.2q.325.125.613.3t.562.375l2.975-1.25l2.75 4.75l-2.575 1.95q.025.175.025.338v.674q0 .163-.05.338l2.575 1.95l-2.75 4.75l-2.95-1.25q-.275.2-.575.375t-.6.3l-.4 3.2zm2.8-6.5q1.45 0 2.475-1.025T15.55 12t-1.025-2.475T12.05 8.5q-1.475 0-2.488 1.025T8.55 12t1.013 2.475T12.05 15.5"/>
    </g>
    <g id="text-badge" transform="translate(50, 0) scale(0.5, 0.5)">
        <circle id="text-badge-circle" cx="50" cy="50" r="25" stroke-width="2"/>
        <text id="text-badge-text" x="50" y="55" font-family="Noto Sans" font-size="40"
              text-anchor="middle" alignment-baseline="middle">
            TEXT_PLACEHOLDER
        </text>
    </g>
</svg>